{
  "asset": {
    "version": "2.0",
    "generator": "Lumen Lab Robot Generator"
  },
  "scene": 0,
  "scenes": [
    {
      "nodes": [0]
    }
  ],
  "nodes": [
    {
      "name": "Robot",
      "children": [1, 2, 3, 4, 5, 6, 7, 8, 9, 10],
      "translation": [0, -1, 0]
    },
    {
      "name": "Body",
      "mesh": 0,
      "translation": [0, 0, 0]
    },
    {
      "name": "Head",
      "mesh": 1,
      "translation": [0, 2, 0]
    },
    {
      "name": "LeftEye",
      "mesh": 2,
      "translation": [-0.3, 2.1, 0.6]
    },
    {
      "name": "RightEye",
      "mesh": 2,
      "translation": [0.3, 2.1, 0.6]
    },
    {
      "name": "Antenna",
      "mesh": 3,
      "translation": [0, 2.8, 0]
    },
    {
      "name": "AntennaBall",
      "mesh": 4,
      "translation": [0, 3.2, 0]
    },
    {
      "name": "LeftArm",
      "mesh": 5,
      "translation": [-1.3, 0.3, 0],
      "rotation": [0, 0, 0.5236, 1]
    },
    {
      "name": "RightArm",
      "mesh": 5,
      "translation": [1.3, 0.3, 0],
      "rotation": [0, 0, -0.5236, 1]
    },
    {
      "name": "LeftHand",
      "mesh": 6,
      "translation": [-1.6, -0.5, 0]
    },
    {
      "name": "RightHand",
      "mesh": 6,
      "translation": [1.6, -0.5, 0]
    }
  ],
  "meshes": [
    {
      "name": "BodyMesh",
      "primitives": [
        {
          "attributes": {
            "POSITION": 0,
            "NORMAL": 1
          },
          "indices": 2,
          "material": 0
        }
      ]
    },
    {
      "name": "HeadMesh",
      "primitives": [
        {
          "attributes": {
            "POSITION": 3,
            "NORMAL": 4
          },
          "indices": 5,
          "material": 1
        }
      ]
    },
    {
      "name": "EyeMesh",
      "primitives": [
        {
          "attributes": {
            "POSITION": 6,
            "NORMAL": 7
          },
          "indices": 8,
          "material": 2
        }
      ]
    },
    {
      "name": "AntennaMesh",
      "primitives": [
        {
          "attributes": {
            "POSITION": 9,
            "NORMAL": 10
          },
          "indices": 11,
          "material": 0
        }
      ]
    },
    {
      "name": "AntennaBallMesh",
      "primitives": [
        {
          "attributes": {
            "POSITION": 12,
            "NORMAL": 13
          },
          "indices": 14,
          "material": 2
        }
      ]
    },
    {
      "name": "ArmMesh",
      "primitives": [
        {
          "attributes": {
            "POSITION": 15,
            "NORMAL": 16
          },
          "indices": 17,
          "material": 0
        }
      ]
    },
    {
      "name": "HandMesh",
      "primitives": [
        {
          "attributes": {
            "POSITION": 18,
            "NORMAL": 19
          },
          "indices": 20,
          "material": 1
        }
      ]
    }
  ],
  "materials": [
    {
      "name": "BodyMaterial",
      "pbrMetallicRoughness": {
        "baseColorFactor": [0.164, 0.164, 0.243, 1.0],
        "metallicFactor": 0.3,
        "roughnessFactor": 0.5
      }
    },
    {
      "name": "HeadMaterial",
      "pbrMetallicRoughness": {
        "baseColorFactor": [0.227, 0.227, 0.306, 1.0],
        "metallicFactor": 0.4,
        "roughnessFactor": 0.4
      }
    },
    {
      "name": "EyeMaterial",
      "pbrMetallicRoughness": {
        "baseColorFactor": [0.42, 0.714, 1.0, 1.0],
        "metallicFactor": 0.8,
        "roughnessFactor": 0.2
      },
      "emissiveFactor": [0.42, 0.714, 1.0]
    }
  ],
  "accessors": [
    {"bufferView": 0, "componentType": 5126, "count": 96, "type": "VEC3", "max": [1.2, 1.25, 1.2], "min": [-1.2, -1.25, -1.2]},
    {"bufferView": 1, "componentType": 5126, "count": 96, "type": "VEC3"},
    {"bufferView": 2, "componentType": 5123, "count": 288, "type": "SCALAR"},
    {"bufferView": 3, "componentType": 5126, "count": 128, "type": "VEC3", "max": [0.8, 0.8, 0.8], "min": [-0.8, -0.8, -0.8]},
    {"bufferView": 4, "componentType": 5126, "count": 128, "type": "VEC3"},
    {"bufferView": 5, "componentType": 5123, "count": 384, "type": "SCALAR"},
    {"bufferView": 6, "componentType": 5126, "count": 64, "type": "VEC3", "max": [0.15, 0.15, 0.15], "min": [-0.15, -0.15, -0.15]},
    {"bufferView": 7, "componentType": 5126, "count": 64, "type": "VEC3"},
    {"bufferView": 8, "componentType": 5123, "count": 192, "type": "SCALAR"},
    {"bufferView": 9, "componentType": 5126, "count": 32, "type": "VEC3", "max": [0.05, 0.4, 0.05], "min": [-0.05, -0.4, -0.05]},
    {"bufferView": 10, "componentType": 5126, "count": 32, "type": "VEC3"},
    {"bufferView": 11, "componentType": 5123, "count": 96, "type": "SCALAR"},
    {"bufferView": 12, "componentType": 5126, "count": 64, "type": "VEC3", "max": [0.15, 0.15, 0.15], "min": [-0.15, -0.15, -0.15]},
    {"bufferView": 13, "componentType": 5126, "count": 64, "type": "VEC3"},
    {"bufferView": 14, "componentType": 5123, "count": 192, "type": "SCALAR"},
    {"bufferView": 15, "componentType": 5126, "count": 64, "type": "VEC3", "max": [0.2, 0.75, 0.2], "min": [-0.2, -0.75, -0.2]},
    {"bufferView": 16, "componentType": 5126, "count": 64, "type": "VEC3"},
    {"bufferView": 17, "componentType": 5123, "count": 192, "type": "SCALAR"},
    {"bufferView": 18, "componentType": 5126, "count": 64, "type": "VEC3", "max": [0.25, 0.25, 0.25], "min": [-0.25, -0.25, -0.25]},
    {"bufferView": 19, "componentType": 5126, "count": 64, "type": "VEC3"},
    {"bufferView": 20, "componentType": 5123, "count": 192, "type": "SCALAR"}
  ],
  "bufferViews": [
    {"buffer": 0, "byteOffset": 0, "byteLength": 1152},
    {"buffer": 0, "byteOffset": 1152, "byteLength": 1152},
    {"buffer": 0, "byteOffset": 2304, "byteLength": 576},
    {"buffer": 0, "byteOffset": 2880, "byteLength": 1536},
    {"buffer": 0, "byteOffset": 4416, "byteLength": 1536},
    {"buffer": 0, "byteOffset": 5952, "byteLength": 768},
    {"buffer": 0, "byteOffset": 6720, "byteLength": 768},
    {"buffer": 0, "byteOffset": 7488, "byteLength": 768},
    {"buffer": 0, "byteOffset": 8256, "byteLength": 384},
    {"buffer": 0, "byteOffset": 8640, "byteLength": 384},
    {"buffer": 0, "byteOffset": 9024, "byteLength": 384},
    {"buffer": 0, "byteOffset": 9408, "byteLength": 192},
    {"buffer": 0, "byteOffset": 9600, "byteLength": 768},
    {"buffer": 0, "byteOffset": 10368, "byteLength": 768},
    {"buffer": 0, "byteOffset": 11136, "byteLength": 384},
    {"buffer": 0, "byteOffset": 11520, "byteLength": 768},
    {"buffer": 0, "byteOffset": 12288, "byteLength": 768},
    {"buffer": 0, "byteOffset": 13056, "byteLength": 384},
    {"buffer": 0, "byteOffset": 13440, "byteLength": 768},
    {"buffer": 0, "byteOffset": 14208, "byteLength": 768},
    {"buffer": 0, "byteOffset": 14976, "byteLength": 384}
  ],
  "buffers": [
    {
      "byteLength": 15360,
      "uri": "data:application/octet-stream;base64,"
    }
  ]
}
